<svg width="132" height="57" viewBox="0 0 132 57" fill="none" xmlns="http://www.w3.org/2000/svg">
<path d="M38.1562 35.125L40.4062 30.875V54H38.1562V35.125ZM42.6562 26.5L44.9062 22.25V54H42.6562V26.5ZM47.1562 18L49.4062 13.7188V54H47.1562V18ZM32.0625 34.0625L30.7812 31.7188L46.2812 2.25H48.8125L32.0625 34.0625ZM29.4688 29.1562L28.1562 26.7812L41.1562 2.25H43.7188L29.4688 29.1562ZM14.4062 31.125L16.6562 35.375V54H14.4062V31.125ZM9.90625 22.5625L12.1562 26.8125V54H9.90625V22.5625ZM5.40625 14L7.65625 18.2812V54H5.40625V14ZM23.5938 40.5H21.0625L3.15625 6.53125V54H0.90625V2.25H3.4375L23.5938 40.5ZM28.6875 40.5H26.125L6 2.25H8.5625L28.6875 40.5ZM51.6562 6.53125L33.75 40.5H31.1875L11.0938 2.25H13.625L32.5 38.125L51.3438 2.25H53.9062V54H51.6562V6.53125ZM73.3438 2.25H75.5938V54H73.3438V2.25ZM68.8438 2.25H71.0938V54H68.8438V2.25ZM64.3438 2.25H66.5938V54H64.3438V2.25ZM59.8438 2.25H62.0938V54H59.8438V2.25ZM120.594 19.9375L118.75 21.1562C117.625 19.4896 116.156 18.1771 114.344 17.2188C112.552 16.2396 110.604 15.75 108.5 15.75C105.083 15.75 102.167 16.9583 99.75 19.375C97.3333 21.7917 96.125 24.7083 96.125 28.125C96.125 31.5417 97.3333 34.4583 99.75 36.875C102.167 39.2917 105.083 40.5 108.5 40.5C110.604 40.5 112.552 40.0104 114.344 39.0312C116.156 38.0521 117.625 36.7292 118.75 35.0625L120.562 36.375C119.229 38.3333 117.5 39.8854 115.375 41.0312C113.25 42.1771 110.958 42.75 108.5 42.75C106.521 42.75 104.625 42.3646 102.812 41.5938C101.021 40.8229 99.4688 39.7812 98.1562 38.4688C96.8438 37.1562 95.8021 35.6042 95.0312 33.8125C94.2604 32 93.875 30.1042 93.875 28.125C93.875 26.1458 94.2604 24.2604 95.0312 22.4688C95.8021 20.6562 96.8438 19.0938 98.1562 17.7812C99.4688 16.4688 101.021 15.4271 102.812 14.6562C104.625 13.8854 106.521 13.5 108.5 13.5C110.979 13.5 113.281 14.0833 115.406 15.25C117.531 16.3958 119.26 17.9583 120.594 19.9375ZM124.312 17.375L122.438 18.5938C120.896 16.3438 118.896 14.5625 116.438 13.25C114 11.9167 111.354 11.25 108.5 11.25C105.438 11.25 102.615 12.0104 100.031 13.5312C97.4479 15.0312 95.3958 17.0729 93.875 19.6562C92.375 22.2396 91.625 25.0625 91.625 28.125C91.625 31.1875 92.375 34.0104 93.875 36.5938C95.3958 39.1771 97.4479 41.2292 100.031 42.75C102.615 44.25 105.438 45 108.5 45C111.354 45 114.01 44.3333 116.469 43C118.927 41.6667 120.927 39.8646 122.469 37.5938L124.312 38.875C122.562 41.4583 120.292 43.5 117.5 45C114.729 46.5 111.729 47.25 108.5 47.25C105.042 47.25 101.844 46.3958 98.9062 44.6875C95.9688 42.9792 93.6458 40.6562 91.9375 37.7188C90.2292 34.7812 89.375 31.5833 89.375 28.125C89.375 24.6667 90.2292 21.4688 91.9375 18.5312C93.6458 15.5938 95.9688 13.2708 98.9062 11.5625C101.844 9.85417 105.042 9 108.5 9C111.729 9 114.729 9.75 117.5 11.25C120.292 12.75 122.562 14.7917 124.312 17.375ZM128.062 14.875L126.188 16.0938C124.229 13.2188 121.688 10.9479 118.562 9.28125C115.458 7.59375 112.104 6.75 108.5 6.75C105.604 6.75 102.833 7.3125 100.188 8.4375C97.5417 9.5625 95.2604 11.0833 93.3438 13C91.4479 14.8958 89.9375 17.1667 88.8125 19.8125C87.6875 22.4583 87.125 25.2292 87.125 28.125C87.125 31.0208 87.6875 33.7917 88.8125 36.4375C89.9375 39.0833 91.4479 41.3646 93.3438 43.2812C95.2604 45.1771 97.5417 46.6875 100.188 47.8125C102.833 48.9375 105.604 49.5 108.5 49.5C112.125 49.5 115.49 48.6562 118.594 46.9688C121.698 45.2812 124.229 43 126.188 40.125L128 41.4688C125.833 44.6354 123.031 47.1458 119.594 49C116.177 50.8333 112.479 51.75 108.5 51.75C104.229 51.75 100.281 50.6979 96.6562 48.5938C93.0312 46.4688 90.1562 43.5938 88.0312 39.9688C85.9271 36.3438 84.875 32.3958 84.875 28.125C84.875 23.8542 85.9271 19.9062 88.0312 16.2812C90.1562 12.6562 93.0312 9.79167 96.6562 7.6875C100.281 5.5625 104.229 4.5 108.5 4.5C112.5 4.5 116.219 5.4375 119.656 7.3125C123.094 9.16667 125.896 11.6875 128.062 14.875ZM131.75 12.3125L129.875 13.5312C127.5 10.0521 124.427 7.30208 120.656 5.28125C116.906 3.26042 112.854 2.25 108.5 2.25C105 2.25 101.646 2.9375 98.4375 4.3125C95.25 5.66667 92.5 7.5 90.1875 9.8125C87.875 12.125 86.0312 14.8854 84.6562 18.0938C83.3021 21.2812 82.625 24.625 82.625 28.125C82.625 31.625 83.3021 34.9792 84.6562 38.1875C86.0312 41.375 87.875 44.125 90.1875 46.4375C92.5 48.75 95.25 50.5938 98.4375 51.9688C101.646 53.3229 105 54 108.5 54C112.854 54 116.917 52.9792 120.688 50.9375C124.458 48.8958 127.531 46.1354 129.906 42.6562L131.719 44.0312C129.135 47.7812 125.802 50.7604 121.719 52.9688C117.635 55.1562 113.229 56.25 108.5 56.25C104.688 56.25 101.042 55.5 97.5625 54C94.1042 52.5208 91.1146 50.5312 88.5938 48.0312C86.0938 45.5104 84.0938 42.5208 82.5938 39.0625C81.1146 35.5833 80.375 31.9375 80.375 28.125C80.375 24.3125 81.1146 20.6771 82.5938 17.2188C84.0938 13.7396 86.0938 10.75 88.5938 8.25C91.1146 5.72917 94.1042 3.72917 97.5625 2.25C101.042 0.75 104.688 0 108.5 0C113.25 0 117.667 1.10417 121.75 3.3125C125.833 5.52083 129.167 8.52083 131.75 12.3125Z" fill="#A35CF1"/>
</svg>
